<svg width="32" height="32" viewBox="0 0 32 32" fill="none" xmlns="http://www.w3.org/2000/svg">
<path d="M9.93182 15.8239L8.61809 13.8533C8.3218 13.4088 8.17366 13.1866 7.95017 13.0602C7.72667 12.9339 7.4599 12.9215 6.92634 12.8966L4.15575 12.7678L1.88803 12.6623C1.34764 12.6372 1.07744 12.6246 0.859661 12.7123C0.640091 12.8008 0.455783 12.9591 0.33525 13.1628C0.215699 13.3649 0.187383 13.6339 0.130751 14.1719C0.0612123 14.8325 0.026443 15.1628 0.0114276 15.4939C-0.0038092 15.8298 -0.0038092 16.1662 0.0114276 16.5021C0.026443 16.8332 0.0613031 17.1644 0.131023 17.8267C0.187936 18.3674 0.216392 18.6377 0.336682 18.8403C0.455885 19.0411 0.637129 19.1977 0.85309 19.2865C1.07102 19.3761 1.34187 19.3651 1.88357 19.3429L8.27263 19.0822H8.27264C8.66582 19.0661 8.86241 19.0581 9.03964 18.9845C9.05261 18.9791 9.06548 18.9735 9.07823 18.9676C9.25244 18.8871 9.39157 18.748 9.66983 18.4697C10.2353 17.9043 10.518 17.6216 10.5668 17.2617C10.5703 17.236 10.5728 17.2102 10.5745 17.1844C10.5972 16.8219 10.3754 16.4892 9.93182 15.8239Z" fill="white"/>
<path d="M22.0682 16.1762L23.382 18.1468C23.6782 18.5912 23.8264 18.8134 24.0499 18.9398C24.2734 19.0662 24.5401 19.0786 25.0737 19.1034L27.8443 19.2323L30.112 19.3377C30.6524 19.3629 30.9226 19.3754 31.1404 19.2877C31.3599 19.1993 31.5443 19.0409 31.6648 18.8372C31.7843 18.6352 31.8127 18.3662 31.8693 17.8281C31.9388 17.1675 31.9736 16.8372 31.9886 16.5062C32.0038 16.1703 32.0038 15.8338 31.9886 15.4979C31.9736 15.1668 31.9387 14.8357 31.869 14.1733C31.8121 13.6327 31.7836 13.3623 31.6634 13.1597C31.5442 12.9589 31.3629 12.8023 31.1469 12.7135C30.929 12.6239 30.6582 12.635 30.1165 12.6571L23.7274 12.9179L23.7274 12.9179C23.3342 12.9339 23.1376 12.9419 22.9604 13.0155C22.9474 13.0209 22.9346 13.0266 22.9218 13.0324C22.7476 13.1129 22.6085 13.252 22.3302 13.5303C21.7648 14.0957 21.482 14.3785 21.4332 14.7383C21.4298 14.764 21.4272 14.7898 21.4256 14.8157C21.4029 15.1781 21.6246 15.5108 22.0682 16.1762Z" fill="white"/>
<path d="M16.1762 9.93185L18.1468 8.61811C18.5912 8.32182 18.8134 8.17368 18.9398 7.95018C19.0662 7.72669 19.0786 7.45991 19.1034 6.92635L19.2323 4.15576L19.3377 1.88803C19.3629 1.34764 19.3754 1.07744 19.2877 0.859663C19.1993 0.640093 19.041 0.455784 18.8372 0.33525C18.6352 0.215699 18.3662 0.187383 17.8282 0.130751C17.1675 0.0612123 16.8372 0.026443 16.5062 0.0114275C16.1703 -0.00380935 15.8338 -0.00380936 15.4979 0.0114275C15.1669 0.0264429 14.8357 0.0613031 14.1733 0.131023C13.6327 0.187936 13.3623 0.216392 13.1597 0.336683C12.9589 0.455886 12.8024 0.63713 12.7136 0.853092C12.624 1.07102 12.635 1.34188 12.6571 1.88358L12.9179 8.27264L12.9179 8.27266C12.9339 8.66584 12.942 8.86243 13.0155 9.03966C13.0209 9.05263 13.0266 9.0655 13.0325 9.07825C13.1129 9.25246 13.2521 9.39159 13.5303 9.66985C14.0958 10.2353 14.3785 10.518 14.7384 10.5668C14.764 10.5703 14.7898 10.5729 14.8157 10.5745C15.1781 10.5972 15.5108 10.3754 16.1762 9.93185Z" fill="white"/>
<path d="M15.8239 22.0682L13.8533 23.3819C13.4088 23.6782 13.1866 23.8264 13.0602 24.0498C12.9339 24.2733 12.9215 24.5401 12.8966 25.0737L12.7678 27.8443L12.6623 30.112C12.6372 30.6524 12.6246 30.9226 12.7123 31.1404C12.8008 31.3599 12.9591 31.5442 13.1628 31.6648C13.3649 31.7843 13.6339 31.8126 14.1719 31.8693C14.8325 31.9388 15.1628 31.9736 15.4938 31.9886C15.8298 32.0038 16.1662 32.0038 16.5021 31.9886C16.8332 31.9736 17.1644 31.9387 17.8267 31.869C18.3674 31.8121 18.6377 31.7836 18.8403 31.6633C19.0411 31.5441 19.1977 31.3629 19.2865 31.1469C19.3761 30.929 19.365 30.6582 19.3429 30.1165L19.0821 23.7274L19.0821 23.7274C19.0661 23.3342 19.0581 23.1376 18.9845 22.9604C18.9791 22.9474 18.9735 22.9345 18.9676 22.9218C18.8871 22.7476 18.748 22.6084 18.4697 22.3302C17.9043 21.7647 17.6216 21.482 17.2617 21.4332C17.236 21.4297 17.2102 21.4272 17.1844 21.4255C16.8219 21.4028 16.4892 21.6246 15.8239 22.0682Z" fill="white"/>
<path d="M20.4098 11.8304L22.7321 12.2949C23.2559 12.3997 23.5178 12.4521 23.7652 12.3834C24.0126 12.3147 24.21 12.1348 24.6048 11.7751L26.655 9.90713L28.3331 8.37818C28.733 8.01384 28.933 7.83167 29.0249 7.61565C29.1177 7.39785 29.136 7.15557 29.0772 6.92628C29.0189 6.69887 28.8487 6.48863 28.5083 6.06816C28.0903 5.55186 27.8814 5.29371 27.6579 5.04901C27.4311 4.8007 27.1932 4.5628 26.9449 4.33604C26.7002 4.11257 26.4414 3.90305 25.9238 3.484C25.5012 3.14193 25.2899 2.9709 25.0616 2.91269C24.8353 2.855 24.5964 2.87243 24.3809 2.96235C24.1635 3.05309 23.9798 3.25243 23.6124 3.6511L19.279 8.35325L19.279 8.35326C19.0123 8.64263 18.879 8.78732 18.8057 8.96467C18.8004 8.97765 18.7953 8.99074 18.7904 9.00392C18.7241 9.184 18.7241 9.38076 18.7241 9.77428C18.7241 10.5739 18.7241 10.9738 18.9441 11.2627C18.9598 11.2834 18.9762 11.3034 18.9933 11.3228C19.2336 11.5952 19.6256 11.6736 20.4098 11.8304Z" fill="white"/>
<path d="M11.5903 20.1696L9.2679 19.7051C8.74414 19.6004 8.48226 19.548 8.23486 19.6166C7.98747 19.6853 7.79005 19.8652 7.39522 20.2249L5.345 22.0929L3.6669 23.6218C3.26701 23.9862 3.06706 24.1684 2.9751 24.3844C2.88237 24.6022 2.864 24.8445 2.92283 25.0737C2.98117 25.3012 3.15136 25.5114 3.49174 25.9319C3.9097 26.4482 4.11868 26.7063 4.34214 26.951C4.5689 27.1993 4.8068 27.4372 5.05511 27.664C5.29981 27.8875 5.55864 28.097 6.07628 28.516C6.49884 28.8581 6.71011 29.0291 6.93844 29.0873C7.16471 29.145 7.40359 29.1276 7.61909 29.0377C7.83655 28.9469 8.02025 28.7476 8.38766 28.3489L12.721 23.6468L12.721 23.6468C12.9877 23.3574 13.121 23.2127 13.1943 23.0354C13.1997 23.0224 13.2048 23.0093 13.2096 22.9961C13.2759 22.816 13.2759 22.6193 13.2759 22.2258C13.2759 21.4261 13.2759 21.0263 13.056 20.7373C13.0403 20.7167 13.0238 20.6966 13.0067 20.6772C12.7665 20.4048 12.3744 20.3264 11.5903 20.1696Z" fill="white"/>
<path d="M20.1696 20.4097L19.7051 22.7321C19.6004 23.2558 19.548 23.5177 19.6167 23.7651C19.6853 24.0125 19.8652 24.2099 20.2249 24.6047L22.0929 26.655L23.6219 28.3331C23.9862 28.733 24.1684 28.9329 24.3844 29.0249C24.6022 29.1176 24.8445 29.136 25.0737 29.0771C25.3012 29.0188 25.5114 28.8486 25.9319 28.5082C26.4482 28.0903 26.7063 27.8813 26.951 27.6578C27.1993 27.4311 27.4372 27.1932 27.664 26.9448C27.8875 26.7001 28.097 26.4413 28.516 25.9237C28.8581 25.5011 29.0291 25.2898 29.0873 25.0615C29.145 24.8353 29.1276 24.5964 29.0377 24.3809C28.9469 24.1634 28.7476 23.9797 28.3489 23.6123L23.6468 19.2789L23.6468 19.2789C23.3574 19.0123 23.2127 18.8789 23.0354 18.8056C23.0224 18.8003 23.0093 18.7952 22.9961 18.7903C22.816 18.724 22.6193 18.724 22.2258 18.724C21.4261 18.724 21.0263 18.724 20.7373 18.944C20.7167 18.9597 20.6966 18.9761 20.6772 18.9932C20.4048 19.2335 20.3264 19.6255 20.1696 20.4097Z" fill="white"/>
<path d="M11.8305 11.5902L12.2949 9.26783C12.3997 8.74406 12.4521 8.48218 12.3834 8.23479C12.3147 7.98739 12.1349 7.78998 11.7751 7.39514L9.90715 5.34492L8.3782 3.66681C8.01386 3.26692 7.83169 3.06698 7.61567 2.97501C7.39788 2.88228 7.1556 2.86391 6.92631 2.92274C6.69889 2.98109 6.48866 3.15128 6.06819 3.49166C5.55189 3.90961 5.29374 4.11859 5.04904 4.34206C4.80073 4.56882 4.56283 4.80672 4.33607 5.05503C4.1126 5.29973 3.90308 5.55856 3.48403 6.0762C3.14197 6.49876 2.97094 6.71003 2.91272 6.93836C2.85503 7.16463 2.87247 7.40352 2.96238 7.61901C3.05312 7.83647 3.25246 8.02018 3.65114 8.38759L8.35328 12.7209L8.35329 12.7209C8.64266 12.9876 8.78734 13.121 8.96469 13.1942C8.97767 13.1996 8.99076 13.2047 9.00394 13.2096C9.18402 13.2759 9.38078 13.2759 9.7743 13.2759C10.574 13.2759 10.9738 13.2759 11.2628 13.0559C11.2834 13.0402 11.3034 13.0238 11.3229 13.0066C11.5952 12.7664 11.6736 12.3743 11.8305 11.5902Z" fill="white"/>
</svg>
